<svg xmlns="http://www.w3.org/2000/svg" viewBox="0 0 1333.34 1101.82" shape-rendering="geometricPrecision" text-rendering="geometricPrecision" image-rendering="optimizeQuality" fill-rule="evenodd" fill="#CCCCCC" clip-rule="evenodd"><path d="M721.07 130.11c62.67-64.98 122-115.85 226.49-127.85 247.71-28.48 475.47 225.1 350.38 474.78-35.65 71.14-108.08 155.66-188.26 238.64-88.02 91.11-185.38 180.36-253.61 248.05l-73.74 73.14-79.63-112.18 93.02-131.06-76.93-69.98 63.95-84.22-88.7-124.96 88.7-124.96-63.95-84.22 76.93-69.98-74.66-105.18zm-115.54 971.71l-108.9-104.89C311.72 818.82 10.17 594.66.23 316.91-6.74 122.37 146.79-2.26 323.37.04 473.53 2 540.87 73.18 635.58 166.17l37.91 53.4-21.87 19.89-.09-.13-7.01 6.59-49.25 44.8.65.89-.51.48 28.61 37.69 17.87 24.26.33-.3 25.94 34.16-86.86 122.36-.8.7.15.22-.15.22.8.7 86.86 122.37-25.94 34.16-.33-.3-17.85 24.24-28.63 37.71.51.48-.65.89 49.25 44.8 7.01 6.59.09-.13 21.87 19.9-83.84 118.12.56.49-.56.49 83.84 118.12-21.87 19.89-.09-.13-7.01 6.59-38.97 35.45z"/></svg>