<svg width="25" height="25" viewBox="0 0 25 25" xmlns="http://www.w3.org/2000/svg"><path d="M22.814 12.25h-1.362v3.063a1.02 1.02 0 0 1-1.744.72L15.92 12.25H11.92c-.94 0-1.703-.785-1.703-1.75V1.75c0-.965.764-1.75 1.703-1.75h10.896c.938 0 1.702.785 1.702 1.75v8.75c0 .965-.764 1.75-1.702 1.75zm-.34-10.208H12.257v8.166h4.086a1.032 1.032 0 0 1 .723.3l2.342 2.34v-1.62c0-.562.456-1.02 1.02-1.02h2.043V2.042zM8.17 10.208h-6.13v8.167h2.044c.564 0 1.022.457 1.022 1.02v1.62l2.34-2.34a1.022 1.022 0 0 1 .724-.3h4.086V14.29a1.02 1.02 0 0 1 2.043 0v4.377c0 .965-.763 1.75-1.702 1.75H8.595L4.808 24.2a1.022 1.022 0 0 1-1.743-.72v-3.063H1.702c-.938 0-1.702-.785-1.702-1.75v-8.75c0-.965.764-1.75 1.702-1.75h6.47a1.022 1.022 0 0 1 0 2.04z" fill="#FFF" fill-rule="evenodd"></path></svg>